<svg width="32" height="32" viewBox="0 0 32 32" fill="none" xmlns="http://www.w3.org/2000/svg">
<path d="M23.9998 2.14381C26.4321 3.5481 28.4519 5.56791 29.8562 8.00022C31.2605 10.4325 31.9998 13.1916 31.9998 16.0002C31.9997 18.8088 31.2604 21.5679 29.8561 24.0002C28.4518 26.4325 26.432 28.4523 23.9996 29.8565C21.5673 31.2608 18.8082 32 15.9996 32C13.191 32 10.432 31.2606 7.99968 29.8563C5.5674 28.4519 3.54764 26.4321 2.1434 23.9997C0.739162 21.5674 -7.1343e-05 18.8083 5.1642e-09 15.9997L0.00800013 15.4813C0.0976044 12.7181 0.90167 10.0253 2.34181 7.66536C3.78194 5.30543 5.809 3.35893 8.22537 2.01562C10.6417 0.672324 13.3649 -0.0219371 16.1295 0.000528389C18.894 0.0229939 21.6056 0.761419 23.9998 2.14381ZM9.59993 4.91499C7.15978 6.32398 5.25274 8.49878 4.17459 11.1021C3.09644 13.7054 2.90744 16.5917 3.6369 19.3134C4.36637 22.0351 5.97352 24.44 8.2091 26.1551C10.4447 27.8703 13.1838 28.7998 16.0015 28.7996L15.9999 3.1998C13.753 3.1999 11.5457 3.79145 9.59993 4.91499Z" fill="#278918"/>
</svg>
